<?xml version="1.0" encoding="UTF-8" standalone="no"?>
<svg
   xmlns:dc="http://purl.org/dc/elements/1.1/"
   xmlns:cc="http://creativecommons.org/ns#"
   xmlns:rdf="http://www.w3.org/1999/02/22-rdf-syntax-ns#"
   xmlns:svg="http://www.w3.org/2000/svg"
   xmlns="http://www.w3.org/2000/svg"
   xmlns:sodipodi="http://sodipodi.sourceforge.net/DTD/sodipodi-0.dtd"
   xmlns:inkscape="http://www.inkscape.org/namespaces/inkscape"
   shape-rendering="crispEdges"
   id="svg8"
   version="1.1"
   viewBox="0 0 500 700.00003"
   height="700"
   width="500"
   sodipodi:docname="logo-usb.svg"
   inkscape:version="1.0.1 (3bc2e813f5, 2020-09-07)"
   inkscape:export-filename="C:\Temp\bitmap.png"
   inkscape:export-xdpi="96"
   inkscape:export-ydpi="96">
  <sodipodi:namedview
     pagecolor="#ffffff"
     bordercolor="#666666"
     borderopacity="1"
     objecttolerance="10"
     gridtolerance="10"
     guidetolerance="10"
     inkscape:pageopacity="0"
     inkscape:pageshadow="2"
     inkscape:window-width="3440"
     inkscape:window-height="1361"
     id="namedview4601"
     showgrid="false"
     inkscape:zoom="0.82590075"
     inkscape:cx="728.19236"
     inkscape:cy="327.18906"
     inkscape:window-x="-9"
     inkscape:window-y="-9"
     inkscape:window-maximized="1"
     inkscape:current-layer="svg8"
     inkscape:document-rotation="0" />
  <style
     id="style836">
.off {
    display: inline;
    fill: #808080;
}

.on {
    display: inline;
    fill: #ff0000;
}
</style>
  <defs
     id="defs2" />
  <metadata
     id="metadata5">
    <rdf:RDF>
      <cc:Work
         rdf:about="">
        <dc:format>image/svg+xml</dc:format>
        <dc:type
           rdf:resource="http://purl.org/dc/dcmitype/StillImage" />
        <dc:title></dc:title>
      </cc:Work>
    </rdf:RDF>
  </metadata>
  <path
     style="display:none;fill:none;stroke:#000000"
     id="sg"
     d="m 100,90 h 80 l 20,20 -20,20 H 100 L 80,110 Z"
     inkscape:connector-curvature="0" />
  <g
     id="g926"
     transform="translate(198.35931,-10.74945)">
    <g
       aria-label="digirig"
       id="text885"
       style="font-style:normal;font-variant:normal;font-weight:bold;font-stretch:normal;font-size:66.6667px;line-height:1.25;font-family:sans-serif;-inkscape-font-specification:'sans-serif, Bold';font-variant-ligatures:normal;font-variant-caps:normal;font-variant-numeric:normal;font-variant-east-asian:normal;letter-spacing:-8px;word-spacing:0px;fill:#000000;fill-opacity:1;stroke:none"
       transform="translate(-199.78187,30.269981)">
      <path
         d="M 119.2254,551.51904 H 95.787958 v -7.61717 q -6.054672,4.94791 -11.328096,7.29165 -5.273424,2.34375 -12.174449,2.34375 -13.34632,0 -21.354112,-10.28644 -8.007792,-10.28643 -8.007792,-27.7343 0,-9.30987 2.669264,-16.47131 2.734368,-7.22655 7.421856,-12.36976 4.427072,-4.8828 10.74216,-7.55207 6.315088,-2.73436 12.630177,-2.73436 6.575504,0 10.74216,1.43228 4.23176,1.36719 8.658832,3.51562 V 450.21722 H 119.2254 Z M 95.787958,531.3368 v -35.8723 q -2.473952,-1.04167 -5.20832,-1.49739 -2.734368,-0.45573 -5.013008,-0.45573 -9.244768,0 -13.867153,5.79425 -4.622384,5.72916 -4.622384,15.95048 0,10.74216 3.710928,15.62496 3.710928,4.8177 11.914033,4.8177 3.190096,0 6.770816,-1.17187 3.58072,-1.23698 6.315088,-3.1901 z"
         style="font-style:normal;font-variant:normal;font-weight:bold;font-stretch:normal;font-size:133.333px;font-family:sans-serif;-inkscape-font-specification:'sans-serif, Bold';font-variant-ligatures:normal;font-variant-caps:normal;font-variant-numeric:normal;font-variant-east-asian:normal;text-align:center;text-anchor:middle"
         id="path886" />
      <path
         d="m 156.7982,551.51904 h -23.43744 v -73.11179 h 23.43744 z m 0.65104,-83.52843 h -24.73952 v -17.77339 h 24.73952 z"
         style="font-style:normal;font-variant:normal;font-weight:bold;font-stretch:normal;font-size:133.333px;font-family:sans-serif;-inkscape-font-specification:'sans-serif, Bold';font-variant-ligatures:normal;font-variant-caps:normal;font-variant-numeric:normal;font-variant-east-asian:normal;text-align:center;text-anchor:middle"
         id="path888" />
      <path
         d="m 242.02712,543.12063 q 0,10.28643 -2.92968,17.31766 -2.92968,7.03123 -8.2031,11.00258 -5.27342,4.03645 -12.76038,5.79425 -7.42186,1.82292 -16.79684,1.82292 -7.61716,0 -15.03902,-0.91146 -7.35675,-0.91146 -12.76038,-2.21354 v -18.29422 h 2.86457 q 4.29687,1.6927 10.48175,3.05989 6.18488,1.43229 11.06768,1.43229 6.5104,0 10.54684,-1.23698 4.10156,-1.17187 6.24999,-3.38541 2.01822,-2.08333 2.92968,-5.33853 0.91145,-3.2552 0.91145,-7.81248 v -1.36718 q -4.23176,3.45051 -9.37497,5.46873 -5.14322,2.01823 -11.45831,2.01823 -15.36454,0 -23.69785,-9.24477 -8.33331,-9.24477 -8.33331,-28.12493 0,-9.04945 2.53905,-15.62496 2.53906,-6.5755 7.16144,-11.4583 4.29687,-4.55728 10.54685,-7.09634 6.31509,-2.53905 12.89059,-2.53905 5.92447,0 10.74216,1.43228 4.8828,1.36719 8.85415,3.84114 l 0.84635,-3.2552 h 22.72129 z m -23.43744,-14.6484 v -33.13794 q -2.01822,-0.84635 -4.9479,-1.30208 -2.92968,-0.52083 -5.27342,-0.52083 -9.24477,0 -13.86716,5.33853 -4.62238,5.27342 -4.62238,14.7786 0,10.54685 3.90624,14.71351 3.97134,4.16665 11.71872,4.16665 3.51562,0 6.90102,-1.10676 3.38541,-1.10677 6.18488,-2.92968 z"
         style="font-style:normal;font-variant:normal;font-weight:bold;font-stretch:normal;font-size:133.333px;font-family:sans-serif;-inkscape-font-specification:'sans-serif, Bold';font-variant-ligatures:normal;font-variant-caps:normal;font-variant-numeric:normal;font-variant-east-asian:normal;text-align:center;text-anchor:middle"
         id="path890" />
      <path
         d="m 279.59992,551.51904 h -23.43744 v -73.11179 h 23.43744 z m 0.65104,-83.52843 h -24.73952 v -17.77339 h 24.73952 z"
         style="font-style:normal;font-variant:normal;font-weight:bold;font-stretch:normal;font-size:133.333px;font-family:sans-serif;-inkscape-font-specification:'sans-serif, Bold';font-variant-ligatures:normal;font-variant-caps:normal;font-variant-numeric:normal;font-variant-east-asian:normal;text-align:center;text-anchor:middle"
         id="path892" />
      <path
         d="m 346.72994,500.73792 h -2.08333 q -1.49739,-0.52083 -4.81769,-0.78125 -3.32031,-0.26041 -5.53384,-0.26041 -5.01301,0 -8.85415,0.65104 -3.84113,0.65104 -8.26821,2.21353 v 48.95821 h -23.43744 v -73.11179 h 23.43744 v 10.74216 q 7.74738,-6.64061 13.47653,-8.78904 5.72915,-2.21354 10.54685,-2.21354 1.23698,0 2.79947,0.0651 1.5625,0.0651 2.73437,0.19531 z"
         style="font-style:normal;font-variant:normal;font-weight:bold;font-stretch:normal;font-size:133.333px;font-family:sans-serif;-inkscape-font-specification:'sans-serif, Bold';font-variant-ligatures:normal;font-variant-caps:normal;font-variant-numeric:normal;font-variant-east-asian:normal;text-align:center;text-anchor:middle"
         id="path894" />
      <path
         d="m 375.4486,551.51904 h -23.43744 v -73.11179 h 23.43744 z m 0.65104,-83.52843 h -24.73952 v -17.77339 h 24.73952 z"
         style="font-style:normal;font-variant:normal;font-weight:bold;font-stretch:normal;font-size:133.333px;font-family:sans-serif;-inkscape-font-specification:'sans-serif, Bold';font-variant-ligatures:normal;font-variant-caps:normal;font-variant-numeric:normal;font-variant-east-asian:normal;text-align:center;text-anchor:middle"
         id="path896" />
      <path
         d="m 460.67752,543.12063 q 0,10.28643 -2.92968,17.31766 -2.92968,7.03123 -8.20311,11.00258 -5.27342,4.03645 -12.76038,5.79425 -7.42186,1.82292 -16.79683,1.82292 -7.61717,0 -15.03903,-0.91146 -7.35675,-0.91146 -12.76038,-2.21354 v -18.29422 h 2.86457 q 4.29687,1.6927 10.48175,3.05989 6.18488,1.43229 11.06768,1.43229 6.5104,0 10.54685,-1.23698 4.10155,-1.17187 6.24998,-3.38541 2.01822,-2.08333 2.92968,-5.33853 0.91146,-3.2552 0.91146,-7.81248 v -1.36718 q -4.23176,3.45051 -9.37498,5.46873 -5.14322,2.01823 -11.4583,2.01823 -15.36455,0 -23.69786,-9.24477 -8.33331,-9.24477 -8.33331,-28.12493 0,-9.04945 2.53905,-15.62496 2.53906,-6.5755 7.16144,-11.4583 4.29687,-4.55728 10.54685,-7.09634 6.31509,-2.53905 12.89059,-2.53905 5.92447,0 10.74216,1.43228 4.8828,1.36719 8.85415,3.84114 l 0.84635,-3.2552 h 22.7213 z m -23.43744,-14.6484 v -33.13794 q -2.01823,-0.84635 -4.94791,-1.30208 -2.92968,-0.52083 -5.27342,-0.52083 -9.24477,0 -13.86715,5.33853 -4.62239,5.27342 -4.62239,14.7786 0,10.54685 3.90624,14.71351 3.97135,4.16665 11.71872,4.16665 3.51562,0 6.90103,-1.10676 3.3854,-1.10677 6.18488,-2.92968 z"
         style="font-style:normal;font-variant:normal;font-weight:bold;font-stretch:normal;font-size:133.333px;font-family:sans-serif;-inkscape-font-specification:'sans-serif, Bold';font-variant-ligatures:normal;font-variant-caps:normal;font-variant-numeric:normal;font-variant-east-asian:normal;text-align:center;text-anchor:middle"
         id="path898" />
    </g>
    <g
       id="g884"
       transform="translate(-197.37597,25.426784)">
      <path
         style="display:inline;fill:none;stroke:#000000;stroke-width:5;stroke-miterlimit:4;stroke-dasharray:none"
         id="1a"
         d="m 100,90 h 80 l 20,20 -20,20 H 100 L 80,110 Z"
         inkscape:connector-curvature="0" />
      <path
         style="display:inline;fill:#000000;stroke:#000000;stroke-width:5;stroke-miterlimit:4;stroke-dasharray:none"
         id="1b"
         d="m 230,140 v 80 l -20,20 -20,-20 v -80 l 20,-20 z"
         inkscape:connector-curvature="0" />
      <path
         style="display:inline;fill:#000000;stroke:#000000;stroke-width:5;stroke-miterlimit:4;stroke-dasharray:none"
         id="1c"
         d="m 230,280 v 80 l -20,20 -20,-20 v -80 l 20,-20 z"
         inkscape:connector-curvature="0" />
      <path
         style="display:inline;fill:#000000;stroke:#000000;stroke-width:5;stroke-miterlimit:4;stroke-dasharray:none"
         id="1d"
         d="m 100,370 h 80 l 20,20 -20,20 H 100 L 80,390 Z"
         inkscape:connector-curvature="0" />
      <path
         style="display:inline;fill:#000000;stroke:#000000;stroke-width:5;stroke-miterlimit:4;stroke-dasharray:none"
         id="1e"
         d="m 90,280 v 80 L 70,380 50,360 v -80 l 20,-20 z"
         inkscape:connector-curvature="0" />
      <path
         style="display:inline;fill:none;stroke:#000000;stroke-width:5;stroke-miterlimit:4;stroke-dasharray:none"
         id="1f"
         d="m 90,140 v 80 L 70,240 50,220 v -80 l 20,-20 z"
         inkscape:connector-curvature="0" />
      <path
         style="display:inline;fill:#000000;stroke:#000000;stroke-width:5;stroke-miterlimit:4;stroke-dasharray:none"
         id="1g"
         d="m 100,230 h 80 l 20,20 -20,20 H 100 L 80,250 Z"
         inkscape:connector-curvature="0" />
      <path
         style="display:inline;fill:none;stroke:#000000;stroke-width:5;stroke-miterlimit:4;stroke-dasharray:none"
         id="2a"
         d="m 320,90 h 80 l 20,20 -20,20 h -80 l -20,-20 z"
         inkscape:connector-curvature="0" />
      <path
         style="display:inline;fill:none;stroke:#000000;stroke-width:5;stroke-miterlimit:4;stroke-dasharray:none"
         id="2b"
         d="m 450,140 v 80 l -20,20 -20,-20 v -80 l 20,-20 z"
         inkscape:connector-curvature="0" />
      <path
         style="display:inline;fill:none;stroke:#000000;stroke-width:5;stroke-miterlimit:4;stroke-dasharray:none"
         id="2c"
         d="m 450,280 v 80 l -20,20 -20,-20 v -80 l 20,-20 z"
         inkscape:connector-curvature="0" />
      <path
         style="display:inline;fill:none;stroke:#000000;stroke-width:5;stroke-miterlimit:4;stroke-dasharray:none"
         id="2d"
         d="m 320,370 h 80 l 20,20 -20,20 h -80 l -20,-20 z"
         inkscape:connector-curvature="0" />
      <path
         style="display:inline;fill:#000000;stroke:#000000;stroke-width:5;stroke-miterlimit:4;stroke-dasharray:none"
         id="2e"
         d="m 310,280 v 80 l -20,20 -20,-20 v -80 l 20,-20 z"
         inkscape:connector-curvature="0" />
      <path
         style="display:inline;fill:none;stroke:#000000;stroke-width:5;stroke-miterlimit:4;stroke-dasharray:none"
         id="2f"
         d="m 310,140 v 80 l -20,20 -20,-20 v -80 l 20,-20 z"
         inkscape:connector-curvature="0" />
      <path
         style="display:inline;fill:#000000;stroke:#000000;stroke-width:5;stroke-miterlimit:4;stroke-dasharray:none"
         id="2g"
         d="m 320,230 h 80 l 20,20 -20,20 h -80 l -20,-20 z"
         inkscape:connector-curvature="0" />
    </g>
  </g>
</svg>
