<?xml version="1.0" encoding="UTF-8" standalone="no"?>
<svg
   xmlns:dc="http://purl.org/dc/elements/1.1/"
   xmlns:cc="http://creativecommons.org/ns#"
   xmlns:rdf="http://www.w3.org/1999/02/22-rdf-syntax-ns#"
   xmlns:svg="http://www.w3.org/2000/svg"
   xmlns="http://www.w3.org/2000/svg"
   xmlns:sodipodi="http://sodipodi.sourceforge.net/DTD/sodipodi-0.dtd"
   xmlns:inkscape="http://www.inkscape.org/namespaces/inkscape"
   shape-rendering="crispEdges"
   id="svg8"
   version="1.1"
   viewBox="0 0 80 80.000003"
   height="80"
   width="80"
   sodipodi:docname="logo-square.svg"
   inkscape:version="1.0.1 (3bc2e813f5, 2020-09-07)">
  <sodipodi:namedview
     pagecolor="#ffffff"
     bordercolor="#666666"
     borderopacity="1"
     objecttolerance="10"
     gridtolerance="10"
     guidetolerance="10"
     inkscape:pageopacity="0"
     inkscape:pageshadow="2"
     inkscape:window-width="3052"
     inkscape:window-height="1117"
     id="namedview877"
     showgrid="false"
     inkscape:zoom="13.9875"
     inkscape:cx="40"
     inkscape:cy="40"
     inkscape:window-x="31"
     inkscape:window-y="122"
     inkscape:window-maximized="0"
     inkscape:current-layer="layer1" />
  <style
     id="style836">
.off {
    display: inline;
    fill: #808080;
}

.on {
    display: inline;
    fill: #ff0000;
}
</style>
  <defs
     id="defs2" />
  <metadata
     id="metadata5">
    <rdf:RDF>
      <cc:Work
         rdf:about="">
        <dc:format>image/svg+xml</dc:format>
        <dc:type
           rdf:resource="http://purl.org/dc/dcmitype/StillImage" />
        <dc:title></dc:title>
      </cc:Work>
    </rdf:RDF>
  </metadata>
  <rect
     style="fill:#999999;fill-opacity:1;stroke-width:0.755906;stroke-linecap:round;stroke-linejoin:round;paint-order:markers fill stroke"
     id="rect848"
     width="80"
     height="80"
     x="0"
     y="0" />
  <g
     style="display:inline"
     id="layer1">
    <path
       style="display:inline;fill:#808080;stroke:none;stroke-width:1"
       id="use879"
       d="m 16,14.4 h 12.8 l 3.2,3.2 -3.2,3.2 H 16 l -3.2,-3.2 z" />
    <path
       style="display:inline;fill:#ff0000;stroke:none;stroke-width:1"
       id="use881"
       d="m 36.8,22.4 v 12.8 l -3.2,3.2 -3.2,-3.2 V 22.4 l 3.2,-3.2 z" />
    <path
       style="display:inline;fill:#ff0000;stroke:none;stroke-width:1"
       id="use883"
       d="m 36.8,44.8 v 12.8 l -3.2,3.2 -3.2,-3.2 V 44.8 l 3.2,-3.2 z" />
    <path
       style="display:inline;fill:#ff0000;stroke:none;stroke-width:1"
       id="use885"
       d="m 16,59.2 h 12.8 l 3.2,3.2 -3.2,3.2 H 16 l -3.2,-3.2 z" />
    <path
       style="display:inline;fill:#ff0000;stroke:none;stroke-width:1"
       id="use887"
       d="M 14.4,44.8 V 57.6 L 11.2,60.8 8,57.6 V 44.8 l 3.2,-3.2 z" />
    <path
       style="display:inline;fill:#808080;stroke:none;stroke-width:1"
       id="use889"
       d="M 14.4,22.4 V 35.2 L 11.2,38.4 8,35.2 V 22.4 l 3.2,-3.2 z" />
    <path
       style="display:inline;fill:#ff0000;stroke:none;stroke-width:1"
       id="use891"
       d="M 16,36.8 H 28.8 L 32,40 28.8,43.2 H 16 L 12.8,40 Z" />
    <path
       style="display:inline;fill:#808080;stroke:none;stroke-width:1"
       id="use893"
       d="M 51.2,14.4 H 64 l 3.2,3.2 -3.2,3.2 H 51.2 L 48,17.6 Z" />
    <path
       style="display:inline;fill:#808080;stroke:none;stroke-width:1"
       id="use895"
       d="m 72,22.4 v 12.8 l -3.2,3.2 -3.2,-3.2 V 22.4 l 3.2,-3.2 z" />
    <path
       style="display:inline;fill:#808080;stroke:none;stroke-width:1"
       id="use897"
       d="m 72,44.8 v 12.8 l -3.2,3.2 -3.2,-3.2 V 44.8 l 3.2,-3.2 z" />
    <path
       style="display:inline;fill:#808080;stroke:none;stroke-width:1"
       id="use899"
       d="M 51.2,59.2 H 64 l 3.2,3.2 -3.2,3.2 H 51.2 L 48,62.4 Z" />
    <path
       style="display:inline;fill:#ff0000;stroke:none;stroke-width:1"
       id="use901"
       d="m 49.6,44.8 v 12.8 l -3.2,3.2 -3.2,-3.2 V 44.8 l 3.2,-3.2 z" />
    <path
       style="display:inline;fill:#808080;stroke:none;stroke-width:1"
       id="use903"
       d="m 49.6,22.4 v 12.8 l -3.2,3.2 -3.2,-3.2 V 22.4 l 3.2,-3.2 z" />
    <path
       style="display:inline;fill:#ff0000;stroke:none;stroke-width:1"
       id="use905"
       d="M 51.2,36.8 H 64 L 67.2,40 64,43.2 H 51.2 L 48,40 Z" />
  </g>
</svg>
