<?xml version="1.0" encoding="UTF-8" standalone="no"?>
<svg
   xmlns:dc="http://purl.org/dc/elements/1.1/"
   xmlns:cc="http://creativecommons.org/ns#"
   xmlns:rdf="http://www.w3.org/1999/02/22-rdf-syntax-ns#"
   xmlns:svg="http://www.w3.org/2000/svg"
   xmlns="http://www.w3.org/2000/svg"
   xmlns:sodipodi="http://sodipodi.sourceforge.net/DTD/sodipodi-0.dtd"
   xmlns:inkscape="http://www.inkscape.org/namespaces/inkscape"
   style="shape-rendering:crispEdges"
   width="20mm"
   height="20mm"
   viewBox="0 0 20.000001 20.000001"
   version="1.1"
   id="svg8"
   sodipodi:docname="logo-6mm.svg"
   inkscape:version="1.0.1 (3bc2e813f5, 2020-09-07)">
  <sodipodi:namedview
     pagecolor="#ffffff"
     bordercolor="#666666"
     borderopacity="1"
     objecttolerance="10"
     gridtolerance="10"
     guidetolerance="10"
     inkscape:pageopacity="0"
     inkscape:pageshadow="2"
     inkscape:window-width="1778"
     inkscape:window-height="1129"
     id="namedview18"
     showgrid="false"
     inkscape:document-units="mm"
     units="mm"
     inkscape:zoom="6.168099"
     inkscape:cx="11.338583"
     inkscape:cy="47.005974"
     inkscape:window-x="109"
     inkscape:window-y="106"
     inkscape:window-maximized="0"
     inkscape:current-layer="svg8" />
  <style
     id="style836">
.off {
    display: inline;
    fill: #808080;
}

.on {
    display: inline;
    fill: #ff0000;
}
</style>
  <defs
     id="defs2" />
  <metadata
     id="metadata5">
    <rdf:RDF>
      <cc:Work
         rdf:about="">
        <dc:format>image/svg+xml</dc:format>
        <dc:type
           rdf:resource="http://purl.org/dc/dcmitype/StillImage" />
        <dc:title></dc:title>
      </cc:Work>
    </rdf:RDF>
  </metadata>
  <g
     id="layer1"
     transform="scale(3.3332498)"
     style="stroke-width:0.300007">
    <path
       transform="scale(0.26458333)"
       id="cir"
       d="M 11.337891,0 A 11.338583,11.338583 0 0 0 0,11.337891 11.338583,11.338583 0 0 0 11.337891,22.677734 11.338583,11.338583 0 0 0 22.677734,11.337891 11.338583,11.338583 0 0 0 11.337891,0 Z M 4.546875,4.0957031 h 3.6289062 l 0.90625,0.90625 -0.90625,0.9082031 H 4.546875 L 3.640625,5.0019531 Z m 9.978516,0 h 3.628906 l 0.90625,0.90625 -0.90625,0.9082031 H 14.525391 L 13.619141,5.0019531 Z M 3.1875,5.4570312 4.09375,6.3632812 V 9.9921875 L 3.1875,10.898438 2.2792969,9.9921875 V 6.3632812 Z m 9.976562,0 0.908204,0.90625 V 9.9921875 L 13.164062,10.898438 12.257812,9.9921875 V 6.3632812 Z m 6.34961,0 0.908203,0.90625 V 9.9921875 L 19.513672,10.898438 18.607422,9.9921875 V 6.3632812 Z m 0,6.3496098 0.908203,0.90625 v 3.628906 l -0.908203,0.90625 -0.90625,-0.90625 v -3.628906 z m -4.988281,4.988281 h 3.628906 l 0.90625,0.90625 -0.90625,0.908203 h -3.628906 l -0.90625,-0.908203 z"
       style="display:inline;opacity:1;fill:#999999;fill-opacity:1;stroke:none;stroke-width:1.13389;paint-order:normal;shape-rendering:crispEdges" />
  </g>
  <g
     id="layer2"
     transform="scale(3.3332498)"
     style="stroke-width:0.300007">
    <path
       d="m 3.8431714,2.7636207 h 0.96 l 0.24,0.24 -0.24,0.24 h -0.96 l -0.24,-0.24 z M 3.7231715,3.3636205 v 0.96 l -0.24,0.24 -0.24,-0.24 v -0.96 l 0.24,-0.24 z m -2.52,-0.5999998 h 0.96 l 0.24,0.24 -0.24,0.24 h -0.96 l -0.23999996,-0.24 z m -0.12,0.5999998 v 0.96 l -0.24000004,0.24 -0.24,-0.24 v -0.96 l 0.24,-0.2399999 z m 0.12,1.0800002 h 0.96 l 0.24,0.24 -0.24,0.24 h -0.96 l -0.23999996,-0.24 z m 1.56,-1.0800002 v 0.96 l -0.24,0.24 -0.24,-0.24 v -0.96 l 0.24,-0.2399999 z m 0,-1.6799998 v 0.96 l -0.24,0.24 -0.24,-0.24 v -0.96 l 0.24,-0.24 z"
       style="display:inline;fill:#ff0000;stroke:none;stroke-width:0.300007;shape-rendering:crispEdges"
       id="2g" />
  </g>
</svg>
