<?xml version="1.0"?><svg xmlns="http://www.w3.org/2000/svg" version="1.1" width="198" height="198" viewBox="0 0 132 145.2"><g><rect x="0" y="0" width="132" height="132" fill="white"/><g transform="translate(0 0) scale(4 4)"><rect x="4" y="4" width="1" height="1" fill="url(#black)"/><rect x="5" y="4" width="1" height="1" fill="url(#black)"/><rect x="6" y="4" width="1" height="1" fill="url(#black)"/><rect x="7" y="4" width="1" height="1" fill="url(#black)"/><rect x="8" y="4" width="1" height="1" fill="url(#black)"/><rect x="9" y="4" width="1" height="1" fill="url(#black)"/><rect x="10" y="4" width="1" height="1" fill="url(#black)"/><rect x="12" y="4" width="1" height="1" fill="url(#black)"/><rect x="13" y="4" width="1" height="1" fill="url(#black)"/><rect x="14" y="4" width="1" height="1" fill="url(#black)"/><rect x="15" y="4" width="1" height="1" fill="url(#black)"/><rect x="17" y="4" width="1" height="1" fill="url(#black)"/><rect x="18" y="4" width="1" height="1" fill="url(#black)"/><rect x="22" y="4" width="1" height="1" fill="url(#black)"/><rect x="23" y="4" width="1" height="1" fill="url(#black)"/><rect x="24" y="4" width="1" height="1" fill="url(#black)"/><rect x="25" y="4" width="1" height="1" fill="url(#black)"/><rect x="26" y="4" width="1" height="1" fill="url(#black)"/><rect x="27" y="4" width="1" height="1" fill="url(#black)"/><rect x="28" y="4" width="1" height="1" fill="url(#black)"/><rect x="4" y="5" width="1" height="1" fill="url(#black)"/><rect x="10" y="5" width="1" height="1" fill="url(#black)"/><rect x="15" y="5" width="1" height="1" fill="url(#black)"/><rect x="16" y="5" width="1" height="1" fill="url(#black)"/><rect x="17" y="5" width="1" height="1" fill="url(#black)"/><rect x="22" y="5" width="1" height="1" fill="url(#black)"/><rect x="28" y="5" width="1" height="1" fill="url(#black)"/><rect x="4" y="6" width="1" height="1" fill="url(#black)"/><rect x="6" y="6" width="1" height="1" fill="url(#black)"/><rect x="7" y="6" width="1" height="1" fill="url(#black)"/><rect x="8" y="6" width="1" height="1" fill="url(#black)"/><rect x="10" y="6" width="1" height="1" fill="url(#black)"/><rect x="13" y="6" width="1" height="1" fill="url(#black)"/><rect x="15" y="6" width="1" height="1" fill="url(#black)"/><rect x="17" y="6" width="1" height="1" fill="url(#black)"/><rect x="18" y="6" width="1" height="1" fill="url(#black)"/><rect x="22" y="6" width="1" height="1" fill="url(#black)"/><rect x="24" y="6" width="1" height="1" fill="url(#black)"/><rect x="25" y="6" width="1" height="1" fill="url(#black)"/><rect x="26" y="6" width="1" height="1" fill="url(#black)"/><rect x="28" y="6" width="1" height="1" fill="url(#black)"/><rect x="4" y="7" width="1" height="1" fill="url(#black)"/><rect x="6" y="7" width="1" height="1" fill="url(#black)"/><rect x="7" y="7" width="1" height="1" fill="url(#black)"/><rect x="8" y="7" width="1" height="1" fill="url(#black)"/><rect x="10" y="7" width="1" height="1" fill="url(#black)"/><rect x="14" y="7" width="1" height="1" fill="url(#black)"/><rect x="15" y="7" width="1" height="1" fill="url(#black)"/><rect x="17" y="7" width="1" height="1" fill="url(#black)"/><rect x="19" y="7" width="1" height="1" fill="url(#black)"/><rect x="20" y="7" width="1" height="1" fill="url(#black)"/><rect x="22" y="7" width="1" height="1" fill="url(#black)"/><rect x="24" y="7" width="1" height="1" fill="url(#black)"/><rect x="25" y="7" width="1" height="1" fill="url(#black)"/><rect x="26" y="7" width="1" height="1" fill="url(#black)"/><rect x="28" y="7" width="1" height="1" fill="url(#black)"/><rect x="4" y="8" width="1" height="1" fill="url(#black)"/><rect x="6" y="8" width="1" height="1" fill="url(#black)"/><rect x="7" y="8" width="1" height="1" fill="url(#black)"/><rect x="8" y="8" width="1" height="1" fill="url(#black)"/><rect x="10" y="8" width="1" height="1" fill="url(#black)"/><rect x="14" y="8" width="1" height="1" fill="url(#black)"/><rect x="15" y="8" width="1" height="1" fill="url(#black)"/><rect x="16" y="8" width="1" height="1" fill="url(#black)"/><rect x="20" y="8" width="1" height="1" fill="url(#black)"/><rect x="22" y="8" width="1" height="1" fill="url(#black)"/><rect x="24" y="8" width="1" height="1" fill="url(#black)"/><rect x="25" y="8" width="1" height="1" fill="url(#black)"/><rect x="26" y="8" width="1" height="1" fill="url(#black)"/><rect x="28" y="8" width="1" height="1" fill="url(#black)"/><rect x="4" y="9" width="1" height="1" fill="url(#black)"/><rect x="10" y="9" width="1" height="1" fill="url(#black)"/><rect x="13" y="9" width="1" height="1" fill="url(#black)"/><rect x="15" y="9" width="1" height="1" fill="url(#black)"/><rect x="18" y="9" width="1" height="1" fill="url(#black)"/><rect x="20" y="9" width="1" height="1" fill="url(#black)"/><rect x="22" y="9" width="1" height="1" fill="url(#black)"/><rect x="28" y="9" width="1" height="1" fill="url(#black)"/><rect x="4" y="10" width="1" height="1" fill="url(#black)"/><rect x="5" y="10" width="1" height="1" fill="url(#black)"/><rect x="6" y="10" width="1" height="1" fill="url(#black)"/><rect x="7" y="10" width="1" height="1" fill="url(#black)"/><rect x="8" y="10" width="1" height="1" fill="url(#black)"/><rect x="9" y="10" width="1" height="1" fill="url(#black)"/><rect x="10" y="10" width="1" height="1" fill="url(#black)"/><rect x="12" y="10" width="1" height="1" fill="url(#black)"/><rect x="14" y="10" width="1" height="1" fill="url(#black)"/><rect x="16" y="10" width="1" height="1" fill="url(#black)"/><rect x="18" y="10" width="1" height="1" fill="url(#black)"/><rect x="20" y="10" width="1" height="1" fill="url(#black)"/><rect x="22" y="10" width="1" height="1" fill="url(#black)"/><rect x="23" y="10" width="1" height="1" fill="url(#black)"/><rect x="24" y="10" width="1" height="1" fill="url(#black)"/><rect x="25" y="10" width="1" height="1" fill="url(#black)"/><rect x="26" y="10" width="1" height="1" fill="url(#black)"/><rect x="27" y="10" width="1" height="1" fill="url(#black)"/><rect x="28" y="10" width="1" height="1" fill="url(#black)"/><rect x="12" y="11" width="1" height="1" fill="url(#black)"/><rect x="13" y="11" width="1" height="1" fill="url(#black)"/><rect x="16" y="11" width="1" height="1" fill="url(#black)"/><rect x="17" y="11" width="1" height="1" fill="url(#black)"/><rect x="18" y="11" width="1" height="1" fill="url(#black)"/><rect x="19" y="11" width="1" height="1" fill="url(#black)"/><rect x="20" y="11" width="1" height="1" fill="url(#black)"/><rect x="4" y="12" width="1" height="1" fill="url(#black)"/><rect x="5" y="12" width="1" height="1" fill="url(#black)"/><rect x="7" y="12" width="1" height="1" fill="url(#black)"/><rect x="8" y="12" width="1" height="1" fill="url(#black)"/><rect x="10" y="12" width="1" height="1" fill="url(#black)"/><rect x="13" y="12" width="1" height="1" fill="url(#black)"/><rect x="16" y="12" width="1" height="1" fill="url(#black)"/><rect x="20" y="12" width="1" height="1" fill="url(#black)"/><rect x="22" y="12" width="1" height="1" fill="url(#black)"/><rect x="28" y="12" width="1" height="1" fill="url(#black)"/><rect x="4" y="13" width="1" height="1" fill="url(#black)"/><rect x="5" y="13" width="1" height="1" fill="url(#black)"/><rect x="7" y="13" width="1" height="1" fill="url(#black)"/><rect x="9" y="13" width="1" height="1" fill="url(#black)"/><rect x="12" y="13" width="1" height="1" fill="url(#black)"/><rect x="14" y="13" width="1" height="1" fill="url(#black)"/><rect x="17" y="13" width="1" height="1" fill="url(#black)"/><rect x="18" y="13" width="1" height="1" fill="url(#black)"/><rect x="19" y="13" width="1" height="1" fill="url(#black)"/><rect x="20" y="13" width="1" height="1" fill="url(#black)"/><rect x="23" y="13" width="1" height="1" fill="url(#black)"/><rect x="24" y="13" width="1" height="1" fill="url(#black)"/><rect x="25" y="13" width="1" height="1" fill="url(#black)"/><rect x="26" y="13" width="1" height="1" fill="url(#black)"/><rect x="27" y="13" width="1" height="1" fill="url(#black)"/><rect x="5" y="14" width="1" height="1" fill="url(#black)"/><rect x="6" y="14" width="1" height="1" fill="url(#black)"/><rect x="7" y="14" width="1" height="1" fill="url(#black)"/><rect x="8" y="14" width="1" height="1" fill="url(#black)"/><rect x="9" y="14" width="1" height="1" fill="url(#black)"/><rect x="10" y="14" width="1" height="1" fill="url(#black)"/><rect x="11" y="14" width="1" height="1" fill="url(#black)"/><rect x="13" y="14" width="1" height="1" fill="url(#black)"/><rect x="16" y="14" width="1" height="1" fill="url(#black)"/><rect x="17" y="14" width="1" height="1" fill="url(#black)"/><rect x="19" y="14" width="1" height="1" fill="url(#black)"/><rect x="20" y="14" width="1" height="1" fill="url(#black)"/><rect x="21" y="14" width="1" height="1" fill="url(#black)"/><rect x="24" y="14" width="1" height="1" fill="url(#black)"/><rect x="25" y="14" width="1" height="1" fill="url(#black)"/><rect x="28" y="14" width="1" height="1" fill="url(#black)"/><rect x="8" y="15" width="1" height="1" fill="url(#black)"/><rect x="11" y="15" width="1" height="1" fill="url(#black)"/><rect x="18" y="15" width="1" height="1" fill="url(#black)"/><rect x="19" y="15" width="1" height="1" fill="url(#black)"/><rect x="22" y="15" width="1" height="1" fill="url(#black)"/><rect x="23" y="15" width="1" height="1" fill="url(#black)"/><rect x="25" y="15" width="1" height="1" fill="url(#black)"/><rect x="26" y="15" width="1" height="1" fill="url(#black)"/><rect x="27" y="15" width="1" height="1" fill="url(#black)"/><rect x="28" y="15" width="1" height="1" fill="url(#black)"/><rect x="4" y="16" width="1" height="1" fill="url(#black)"/><rect x="5" y="16" width="1" height="1" fill="url(#black)"/><rect x="7" y="16" width="1" height="1" fill="url(#black)"/><rect x="10" y="16" width="1" height="1" fill="url(#black)"/><rect x="11" y="16" width="1" height="1" fill="url(#black)"/><rect x="13" y="16" width="1" height="1" fill="url(#black)"/><rect x="14" y="16" width="1" height="1" fill="url(#black)"/><rect x="16" y="16" width="1" height="1" fill="url(#black)"/><rect x="19" y="16" width="1" height="1" fill="url(#black)"/><rect x="20" y="16" width="1" height="1" fill="url(#black)"/><rect x="22" y="16" width="1" height="1" fill="url(#black)"/><rect x="23" y="16" width="1" height="1" fill="url(#black)"/><rect x="28" y="16" width="1" height="1" fill="url(#black)"/><rect x="4" y="17" width="1" height="1" fill="url(#black)"/><rect x="5" y="17" width="1" height="1" fill="url(#black)"/><rect x="6" y="17" width="1" height="1" fill="url(#black)"/><rect x="8" y="17" width="1" height="1" fill="url(#black)"/><rect x="11" y="17" width="1" height="1" fill="url(#black)"/><rect x="13" y="17" width="1" height="1" fill="url(#black)"/><rect x="14" y="17" width="1" height="1" fill="url(#black)"/><rect x="16" y="17" width="1" height="1" fill="url(#black)"/><rect x="17" y="17" width="1" height="1" fill="url(#black)"/><rect x="19" y="17" width="1" height="1" fill="url(#black)"/><rect x="20" y="17" width="1" height="1" fill="url(#black)"/><rect x="24" y="17" width="1" height="1" fill="url(#black)"/><rect x="27" y="17" width="1" height="1" fill="url(#black)"/><rect x="4" y="18" width="1" height="1" fill="url(#black)"/><rect x="5" y="18" width="1" height="1" fill="url(#black)"/><rect x="6" y="18" width="1" height="1" fill="url(#black)"/><rect x="7" y="18" width="1" height="1" fill="url(#black)"/><rect x="8" y="18" width="1" height="1" fill="url(#black)"/><rect x="10" y="18" width="1" height="1" fill="url(#black)"/><rect x="11" y="18" width="1" height="1" fill="url(#black)"/><rect x="12" y="18" width="1" height="1" fill="url(#black)"/><rect x="13" y="18" width="1" height="1" fill="url(#black)"/><rect x="14" y="18" width="1" height="1" fill="url(#black)"/><rect x="16" y="18" width="1" height="1" fill="url(#black)"/><rect x="17" y="18" width="1" height="1" fill="url(#black)"/><rect x="19" y="18" width="1" height="1" fill="url(#black)"/><rect x="21" y="18" width="1" height="1" fill="url(#black)"/><rect x="22" y="18" width="1" height="1" fill="url(#black)"/><rect x="24" y="18" width="1" height="1" fill="url(#black)"/><rect x="25" y="18" width="1" height="1" fill="url(#black)"/><rect x="26" y="18" width="1" height="1" fill="url(#black)"/><rect x="27" y="18" width="1" height="1" fill="url(#black)"/><rect x="28" y="18" width="1" height="1" fill="url(#black)"/><rect x="4" y="19" width="1" height="1" fill="url(#black)"/><rect x="7" y="19" width="1" height="1" fill="url(#black)"/><rect x="9" y="19" width="1" height="1" fill="url(#black)"/><rect x="12" y="19" width="1" height="1" fill="url(#black)"/><rect x="14" y="19" width="1" height="1" fill="url(#black)"/><rect x="16" y="19" width="1" height="1" fill="url(#black)"/><rect x="20" y="19" width="1" height="1" fill="url(#black)"/><rect x="21" y="19" width="1" height="1" fill="url(#black)"/><rect x="23" y="19" width="1" height="1" fill="url(#black)"/><rect x="25" y="19" width="1" height="1" fill="url(#black)"/><rect x="26" y="19" width="1" height="1" fill="url(#black)"/><rect x="28" y="19" width="1" height="1" fill="url(#black)"/><rect x="4" y="20" width="1" height="1" fill="url(#black)"/><rect x="6" y="20" width="1" height="1" fill="url(#black)"/><rect x="7" y="20" width="1" height="1" fill="url(#black)"/><rect x="8" y="20" width="1" height="1" fill="url(#black)"/><rect x="9" y="20" width="1" height="1" fill="url(#black)"/><rect x="10" y="20" width="1" height="1" fill="url(#black)"/><rect x="13" y="20" width="1" height="1" fill="url(#black)"/><rect x="17" y="20" width="1" height="1" fill="url(#black)"/><rect x="20" y="20" width="1" height="1" fill="url(#black)"/><rect x="21" y="20" width="1" height="1" fill="url(#black)"/><rect x="22" y="20" width="1" height="1" fill="url(#black)"/><rect x="23" y="20" width="1" height="1" fill="url(#black)"/><rect x="24" y="20" width="1" height="1" fill="url(#black)"/><rect x="26" y="20" width="1" height="1" fill="url(#black)"/><rect x="27" y="20" width="1" height="1" fill="url(#black)"/><rect x="12" y="21" width="1" height="1" fill="url(#black)"/><rect x="13" y="21" width="1" height="1" fill="url(#black)"/><rect x="14" y="21" width="1" height="1" fill="url(#black)"/><rect x="18" y="21" width="1" height="1" fill="url(#black)"/><rect x="20" y="21" width="1" height="1" fill="url(#black)"/><rect x="24" y="21" width="1" height="1" fill="url(#black)"/><rect x="26" y="21" width="1" height="1" fill="url(#black)"/><rect x="27" y="21" width="1" height="1" fill="url(#black)"/><rect x="4" y="22" width="1" height="1" fill="url(#black)"/><rect x="5" y="22" width="1" height="1" fill="url(#black)"/><rect x="6" y="22" width="1" height="1" fill="url(#black)"/><rect x="7" y="22" width="1" height="1" fill="url(#black)"/><rect x="8" y="22" width="1" height="1" fill="url(#black)"/><rect x="9" y="22" width="1" height="1" fill="url(#black)"/><rect x="10" y="22" width="1" height="1" fill="url(#black)"/><rect x="15" y="22" width="1" height="1" fill="url(#black)"/><rect x="18" y="22" width="1" height="1" fill="url(#black)"/><rect x="20" y="22" width="1" height="1" fill="url(#black)"/><rect x="22" y="22" width="1" height="1" fill="url(#black)"/><rect x="24" y="22" width="1" height="1" fill="url(#black)"/><rect x="28" y="22" width="1" height="1" fill="url(#black)"/><rect x="4" y="23" width="1" height="1" fill="url(#black)"/><rect x="10" y="23" width="1" height="1" fill="url(#black)"/><rect x="13" y="23" width="1" height="1" fill="url(#black)"/><rect x="14" y="23" width="1" height="1" fill="url(#black)"/><rect x="15" y="23" width="1" height="1" fill="url(#black)"/><rect x="17" y="23" width="1" height="1" fill="url(#black)"/><rect x="18" y="23" width="1" height="1" fill="url(#black)"/><rect x="19" y="23" width="1" height="1" fill="url(#black)"/><rect x="20" y="23" width="1" height="1" fill="url(#black)"/><rect x="24" y="23" width="1" height="1" fill="url(#black)"/><rect x="4" y="24" width="1" height="1" fill="url(#black)"/><rect x="6" y="24" width="1" height="1" fill="url(#black)"/><rect x="7" y="24" width="1" height="1" fill="url(#black)"/><rect x="8" y="24" width="1" height="1" fill="url(#black)"/><rect x="10" y="24" width="1" height="1" fill="url(#black)"/><rect x="12" y="24" width="1" height="1" fill="url(#black)"/><rect x="13" y="24" width="1" height="1" fill="url(#black)"/><rect x="14" y="24" width="1" height="1" fill="url(#black)"/><rect x="15" y="24" width="1" height="1" fill="url(#black)"/><rect x="16" y="24" width="1" height="1" fill="url(#black)"/><rect x="19" y="24" width="1" height="1" fill="url(#black)"/><rect x="20" y="24" width="1" height="1" fill="url(#black)"/><rect x="21" y="24" width="1" height="1" fill="url(#black)"/><rect x="22" y="24" width="1" height="1" fill="url(#black)"/><rect x="23" y="24" width="1" height="1" fill="url(#black)"/><rect x="24" y="24" width="1" height="1" fill="url(#black)"/><rect x="4" y="25" width="1" height="1" fill="url(#black)"/><rect x="6" y="25" width="1" height="1" fill="url(#black)"/><rect x="7" y="25" width="1" height="1" fill="url(#black)"/><rect x="8" y="25" width="1" height="1" fill="url(#black)"/><rect x="10" y="25" width="1" height="1" fill="url(#black)"/><rect x="12" y="25" width="1" height="1" fill="url(#black)"/><rect x="14" y="25" width="1" height="1" fill="url(#black)"/><rect x="15" y="25" width="1" height="1" fill="url(#black)"/><rect x="17" y="25" width="1" height="1" fill="url(#black)"/><rect x="18" y="25" width="1" height="1" fill="url(#black)"/><rect x="21" y="25" width="1" height="1" fill="url(#black)"/><rect x="22" y="25" width="1" height="1" fill="url(#black)"/><rect x="27" y="25" width="1" height="1" fill="url(#black)"/><rect x="28" y="25" width="1" height="1" fill="url(#black)"/><rect x="4" y="26" width="1" height="1" fill="url(#black)"/><rect x="6" y="26" width="1" height="1" fill="url(#black)"/><rect x="7" y="26" width="1" height="1" fill="url(#black)"/><rect x="8" y="26" width="1" height="1" fill="url(#black)"/><rect x="10" y="26" width="1" height="1" fill="url(#black)"/><rect x="13" y="26" width="1" height="1" fill="url(#black)"/><rect x="14" y="26" width="1" height="1" fill="url(#black)"/><rect x="15" y="26" width="1" height="1" fill="url(#black)"/><rect x="16" y="26" width="1" height="1" fill="url(#black)"/><rect x="19" y="26" width="1" height="1" fill="url(#black)"/><rect x="21" y="26" width="1" height="1" fill="url(#black)"/><rect x="24" y="26" width="1" height="1" fill="url(#black)"/><rect x="25" y="26" width="1" height="1" fill="url(#black)"/><rect x="26" y="26" width="1" height="1" fill="url(#black)"/><rect x="27" y="26" width="1" height="1" fill="url(#black)"/><rect x="28" y="26" width="1" height="1" fill="url(#black)"/><rect x="4" y="27" width="1" height="1" fill="url(#black)"/><rect x="10" y="27" width="1" height="1" fill="url(#black)"/><rect x="12" y="27" width="1" height="1" fill="url(#black)"/><rect x="16" y="27" width="1" height="1" fill="url(#black)"/><rect x="18" y="27" width="1" height="1" fill="url(#black)"/><rect x="19" y="27" width="1" height="1" fill="url(#black)"/><rect x="21" y="27" width="1" height="1" fill="url(#black)"/><rect x="23" y="27" width="1" height="1" fill="url(#black)"/><rect x="24" y="27" width="1" height="1" fill="url(#black)"/><rect x="26" y="27" width="1" height="1" fill="url(#black)"/><rect x="27" y="27" width="1" height="1" fill="url(#black)"/><rect x="28" y="27" width="1" height="1" fill="url(#black)"/><rect x="4" y="28" width="1" height="1" fill="url(#black)"/><rect x="5" y="28" width="1" height="1" fill="url(#black)"/><rect x="6" y="28" width="1" height="1" fill="url(#black)"/><rect x="7" y="28" width="1" height="1" fill="url(#black)"/><rect x="8" y="28" width="1" height="1" fill="url(#black)"/><rect x="9" y="28" width="1" height="1" fill="url(#black)"/><rect x="10" y="28" width="1" height="1" fill="url(#black)"/><rect x="12" y="28" width="1" height="1" fill="url(#black)"/><rect x="14" y="28" width="1" height="1" fill="url(#black)"/><rect x="15" y="28" width="1" height="1" fill="url(#black)"/><rect x="16" y="28" width="1" height="1" fill="url(#black)"/><rect x="20" y="28" width="1" height="1" fill="url(#black)"/><rect x="22" y="28" width="1" height="1" fill="url(#black)"/><rect x="25" y="28" width="1" height="1" fill="url(#black)"/><rect x="28" y="28" width="1" height="1" fill="url(#black)"/><defs>
			<linearGradient id="black" x1="0" x2="0" y1="0" y2="1">
				<stop offset="0%" stop-color="#000"/>
				<stop offset="100%" stop-color="#000"/>
			</linearGradient>
			<linearGradient id="navyBlue" x1="0" x2="0" y1="0" y2="1">
				<stop offset="0%" stop-color="#00379c"/>
				<stop offset="100%" stop-color="#00379c"/>
			</linearGradient>
			<linearGradient id="midnightGreen" x1="0" x2="0" y1="0" y2="1" gradientUnits="userSpaceOnUse" gradientTransform="scale(25, 25)">
				<stop offset="0%" stop-color="#008000"/>
				<stop offset="100%" stop-color="#008000"/>
			</linearGradient>
			<linearGradient id="holo" x1="0" x2="0" y1="0" y2="1" gradientUnits="userSpaceOnUse" gradientTransform="scale(25, 25)">
				<stop offset="0%" stop-color="#ae00ff"/>
				<stop offset="100%" stop-color="#009dff"/>
			</linearGradient>
			<linearGradient id="gradient" x1="0" x2="0" y1="0" y2="1" gradientUnits="userSpaceOnUse" gradientTransform="scale(25, 25)">
				<stop offset="0%" stop-color="#d85bc6"/>
				<stop offset="100%" stop-color="#5c4cff"/>
			</linearGradient>
			<linearGradient id="neon" x1="0" x2="0" y1="0" y2="1" gradientUnits="userSpaceOnUse" gradientTransform="scale(25, 25)">
				<stop offset="0%" stop-color="#00c400"/>
				<stop offset="100%" stop-color="#00612a"/>
			</linearGradient>
		</defs></g></g></svg>